HIERARCHY
ROOT Hips
{
	OFFSET 0.00000 0.00000 0.00000
	CHANNELS 6 Xposition Yposition Zposition Zrotation Yrotation Xrotation 
	JOINT LHipJoint
	{
		OFFSET 0 0 0
		CHANNELS 3 Zrotation Yrotation Xrotation
		JOINT LeftUpLeg
		{
			OFFSET 1.38280 -1.96574 0.54427
			CHANNELS 3 Zrotation Yrotation Xrotation
			JOINT LeftLeg
			{
				OFFSET 2.72096 -7.47578 0.00000
				CHANNELS 3 Zrotation Yrotation Xrotation
				JOINT LeftFoot
				{
					OFFSET 2.73041 -7.50176 0.00000
					CHANNELS 3 Zrotation Yrotation Xrotation
					JOINT LeftToeBase
					{
						OFFSET 0.16150 -0.44371 2.18031
						CHANNELS 3 Zrotation Yrotation Xrotation
						End Site
						{
							OFFSET 0.00000 -0.00000 1.12127
						}
					}
				}
			}
		}
	}
	JOINT RHipJoint
	{
		OFFSET 0 0 0
		CHANNELS 3 Zrotation Yrotation Xrotation
		JOINT RightUpLeg
		{
			OFFSET -1.57224 -1.96575 0.54427
			CHANNELS 3 Zrotation Yrotation Xrotation
			JOINT RightLeg
			{
				OFFSET -2.95935 -8.13076 0.00000
				CHANNELS 3 Zrotation Yrotation Xrotation
				JOINT RightFoot
				{
					OFFSET -2.52345 -6.93311 0.00000
					CHANNELS 3 Zrotation Yrotation Xrotation
					JOINT RightToeBase
					{
						OFFSET -0.04475 -0.10171 1.86688
						CHANNELS 3 Zrotation Yrotation Xrotation
						End Site
						{
							OFFSET -0.00000 -0.00000 0.95157
						}
					}
				}
			}
		}
	}
	JOINT LowerBack
	{
		OFFSET 0 0 0
		CHANNELS 3 Zrotation Yrotation Xrotation
		JOINT Spine
		{
			OFFSET 0.00669 2.07367 0.09104
			CHANNELS 3 Zrotation Yrotation Xrotation
			JOINT Spine1
			{
				OFFSET -0.00664 2.06198 -0.04732
				CHANNELS 3 Zrotation Yrotation Xrotation
				JOINT Neck
				{
					OFFSET 0 0 0
					CHANNELS 3 Zrotation Yrotation Xrotation
					JOINT Neck1
					{
						OFFSET -0.00021 1.49948 0.16345
						CHANNELS 3 Zrotation Yrotation Xrotation
						JOINT Head
						{
							OFFSET 0.06080 1.50567 -0.26702
							CHANNELS 3 Zrotation Yrotation Xrotation
							End Site
							{
								OFFSET 0.01726 1.56470 -0.11854
							}
						}
					}
				}
				JOINT LeftShoulder
				{
					OFFSET 0 0 0
					CHANNELS 3 Zrotation Yrotation Xrotation
					JOINT LeftArm
					{
						OFFSET 3.14993 0.82932 -0.22488
						CHANNELS 3 Zrotation Yrotation Xrotation
						JOINT LeftForeArm
						{
							OFFSET 5.68236 -0.00000 -0.00000
							CHANNELS 3 Zrotation Yrotation Xrotation
							JOINT LeftHand
							{
								OFFSET 3.17112 -0.00000 0.00000
								CHANNELS 3 Zrotation Yrotation Xrotation
								JOINT LeftFingerBase
								{
									OFFSET 0 0 0
									CHANNELS 3 Zrotation Yrotation Xrotation
									JOINT LeftHandIndex1
									{
										OFFSET 0.63269 -0.00000 0.00000
										CHANNELS 3 Zrotation Yrotation Xrotation
										End Site
										{
											OFFSET 0.51009 -0.00000 0.00000
										}
									}
								}
								JOINT LThumb
								{
									OFFSET 0 0 0
									CHANNELS 3 Zrotation Yrotation Xrotation
									End Site
									{
										OFFSET 0.51788 -0.00000 0.51788
									}
								}
							}
						}
					}
				}
				JOINT RightShoulder
				{
					OFFSET 0 0 0
					CHANNELS 3 Zrotation Yrotation Xrotation
					JOINT RightArm
					{
						OFFSET -3.10571 0.91279 -0.33334
						CHANNELS 3 Zrotation Yrotation Xrotation
						JOINT RightForeArm
						{
							OFFSET -5.87120 -0.00000 -0.00000
							CHANNELS 3 Zrotation Yrotation Xrotation
							JOINT RightHand
							{
								OFFSET -3.37589 -0.00000 0.00000
								CHANNELS 3 Zrotation Yrotation Xrotation
								JOINT RightFingerBase
								{
									OFFSET 0 0 0
									CHANNELS 3 Zrotation Yrotation Xrotation
									JOINT RightHandIndex1
									{
										OFFSET -0.60326 -0.00000 0.00000
										CHANNELS 3 Zrotation Yrotation Xrotation
										End Site
										{
											OFFSET -0.48636 -0.00000 0.00000
										}
									}
								}
								JOINT RThumb
								{
									OFFSET 0 0 0
									CHANNELS 3 Zrotation Yrotation Xrotation
									End Site
									{
										OFFSET -0.49379 -0.00000 0.49379
									}
								}
							}
						}
					}
				}
			}
		}
	}
}
MOTION
Frames: 15
Frame Time: 0.0115607
0.00 0.00 0.00 0 0 0 0 0 0 -21 0 0 0 0 0 0 0 0 0 0 0 0 0 0 21 0 0 0 0 0 0 0 0 0 0 0 0 0 0 0 0 0 0 0 0 0 0 -16 0 0 21 0 0 11 0 0 0 -8 0 0 0 0 0 0 0 0 0 0 0 0 0 0 0 0 0 0 0 0 8 0 0 0 0 0 0 0 0 0 0 0 0 0 0 0 0 0
0.00 0.00 0.00 100.8120 -87.8957 -90.8681 0.0000 0.0000 0.0000 -19.2768 -6.4911 -23.2821 5.0311 13.4187 40.9568 0.9058 -3.7615 -17.1139 1.2704 -7.1440 -20.1425 0.0000 0.0000 0.0000 20.0753 9.3489 -17.3347 -2.9307 -10.5820 30.8827 0.1947 12.5467 -5.9115 -1.4614 -7.6404 21.6269 -0.1150 0.1662 -7.4862 1.2719 0.1550 1.5604 1.4095 0.0467 5.8268 -3.1784 -0.4122 -16.9547 0.4593 0.1140 15.7302 0.6822 -0.1106 7.6392 0.0000 0.0000 0.0000 -88.2653 -0.8032 36.4458 18.1866 -28.3954 -4.6376 -0.0000 0.0000 -15.0345 20.0182 32.8310 11.1736 -7.1250 0.0000 -0.0000 -15.3551 63.8242 -7.0896 0.0000 0.0000 0.0000 83.7777 -0.0551 16.3497 -24.6709 35.8657 -8.0963 0.0000 0.0000 13.4207 -18.6417 28.7225 -9.2086 7.1250 -0.0000 -0.0000 7.0045 -0.1349 7.0408
0.00 0.00 0.00 172.0660 -82.3991 -161.6750 0.0000 0.0000 0.0000 -19.8377 -11.3409 -27.8688 2.2788 9.4241 27.1312 0.4305 4.1805 -14.6389 0.1653 -2.6197 -7.2218 0.0000 0.0000 0.0000 17.2271 4.6179 -6.3312 -4.9344 -13.3095 40.5383 0.2182 8.6943 6.1154 -12.0307 18.4036 -66.0860 -3.7886 -0.0766 -8.4174 -0.3132 0.3199 1.6119 1.8474 0.0192 6.4041 -11.1726 -9.3631 -11.4941 7.0982 -12.1235 15.5291 2.8031 -5.8913 7.8009 0.0000 -0.0000 0.0000 -86.1445 -3.3713 31.7169 15.7441 -25.1725 -3.5364 -0.0000 0.0000 -13.5046 18.1943 33.9950 10.4130 -7.1250 0.0000 -0.0000 -18.4948 64.4372 -8.8487 0.0000 -0.0000 0.0000 85.4907 -5.7153 18.1337 -17.2284 27.1578 -4.1910 0.0000 0.0000 18.9616 -15.6427 28.2517 -7.5501 7.1250 -0.0000 -0.0000 8.7211 -1.1117 8.6517
0.00 0.00 0.00 171.7990 -80.7579 -161.6570 0.0000 0.0000 0.0000 -21.3042 -9.9824 -26.2754 2.3888 9.6328 27.7957 0.6288 3.1414 -16.4478 0.1954 -2.8468 -7.8524 0.0000 0.0000 0.0000 15.4415 6.7761 -13.4221 -8.3235 -16.3521 53.7197 0.1253 6.5740 4.5325 -12.7816 18.7019 -68.4457 -4.3947 -0.0978 -8.0295 -0.3220 0.3438 1.9065 2.1804 0.0014 6.4928 -9.6265 -7.8136 -13.2064 5.9278 -9.9045 16.0596 2.4025 -4.8077 7.9169 0.0000 0.0000 0.0000 -85.2957 -6.5697 33.7311 17.0961 -26.9842 -4.1308 -0.0000 0.0000 -14.8413 18.1964 33.7553 10.3509 -7.1250 0.0000 -0.0000 -18.2665 64.2127 -8.6406 0.0000 0.0000 0.0000 85.2668 -5.4037 14.9259 -16.8297 26.6328 -4.0107 0.0000 0.0000 19.0605 -21.1145 29.9108 -10.8993 7.1250 -0.0000 -0.0000 5.7076 1.5421 5.8881
0.00 0.00 0.00 152.0740 -85.6514 -141.9340 0.0000 0.0000 0.0000 -26.0804 -3.8238 -9.7505 1.1695 6.8647 19.3153 1.0354 -4.4408 -18.2618 0.6065 -4.9849 -13.8654 0.0000 0.0000 0.0000 5.3830 25.6542 -32.8035 -0.8206 -5.7801 16.1478 -0.1268 7.0951 -7.5329 -5.7488 -14.1805 43.9652 -3.4585 -1.3576 -6.5594 1.1581 -1.5757 2.7952 2.9632 -0.9575 6.7428 -7.5926 -4.3634 -15.2604 3.4889 -4.9085 15.6334 1.8387 -2.4910 7.6064 0.0000 0.0000 0.0000 -85.2584 -13.2194 39.1053 20.6356 -31.4005 -5.8589 -0.0000 0.0000 -16.1795 17.2316 32.3139 9.4138 -7.1250 0.0000 -0.0000 -18.0725 62.5993 -7.8633 0.0000 0.0000 0.0000 86.3144 -6.3400 9.9640 -16.9224 26.7553 -4.0523 0.0000 0.0000 16.4798 -19.8702 30.4789 -10.3877 7.1250 -0.0000 -0.0000 6.4973 1.8762 6.7495
0.00 0.00 0.00 4.3431 -82.2988 7.1735 0.0000 0.0000 0.0000 -18.2384 -4.8076 -17.2744 8.7173 16.6223 55.1072 -0.0036 8.2076 -11.6289 0.2742 -3.3684 -9.3062 0.0000 0.0000 0.0000 15.9380 16.5978 -26.2458 -2.7952 -10.3559 30.1370 0.0640 4.5049 1.1586 -2.4758 -9.7938 28.3115 1.2052 -0.0474 -6.7784 2.2144 -0.3308 2.3804 1.5942 -0.1728 6.2997 -5.3579 -3.8808 -16.0017 1.5346 -4.2848 12.8180 0.9150 -2.2028 6.6820 -0.0000 0.0000 0.0000 -87.0390 5.8411 38.3193 17.5432 -27.5683 -4.3358 -0.0000 0.0000 -16.1248 15.4299 35.1562 9.0304 -7.1250 0.0000 -0.0000 -22.7886 64.7482 -11.1611 -0.0000 0.0000 0.0000 80.3499 -1.2768 6.5284 -16.7693 26.5527 -3.9837 0.0000 0.0000 17.4452 -20.2189 28.1072 -9.8437 7.1250 -0.0000 -0.0000 6.0083 -0.4753 5.9914
0.00 0.00 0.00 -13.4732 -75.3281 23.3986 0.0000 0.0000 0.0000 -18.2373 -12.7142 -33.1975 0.3357 3.7236 10.3003 1.2098 10.4381 -26.9522 0.1530 -2.5202 -6.9456 0.0000 0.0000 0.0000 27.0606 2.2477 -8.7526 -1.5590 -7.8797 22.3494 0.5243 13.3076 0.6777 -1.1540 -6.8205 19.1847 2.7868 1.6003 -7.3311 1.9241 1.7102 2.5930 0.6755 0.9043 6.8610 -4.4701 -4.1604 -14.9423 1.9388 -5.0027 13.5434 0.8398 -2.4811 6.7482 0.0000 0.0000 0.0000 -87.6168 3.3780 36.5524 18.1403 -28.3364 -4.6156 -0.0000 0.0000 -16.1415 15.6862 32.4676 8.5730 -7.1250 0.0000 -0.0000 -19.9088 62.3489 -8.5771 0.0000 0.0000 0.0000 76.1339 13.8817 26.0724 -28.7819 39.8261 -10.6207 0.0000 0.0000 9.1063 -24.1749 28.8225 -12.2110 7.1250 -0.0000 -0.0000 3.7804 1.0570 3.8579
0.00 0.00 0.00 -0.3983 -34.2628 10.6075 0.0000 0.0000 0.0000 -29.1825 -11.4414 -11.7214 1.9981 8.8621 25.3649 -0.1006 -12.5838 -7.4241 0.0034 0.3757 1.0322 0.0000 0.0000 0.0000 5.9188 31.6860 -29.6025 -1.8153 -8.4702 24.1517 -0.0888 -0.0648 5.6057 -3.4817 -11.4368 33.7675 -2.4441 -0.7379 -9.8974 -0.0354 -0.6757 1.7582 1.2303 -0.4351 7.4503 5.4892 10.2781 -14.1118 -12.4416 16.2025 22.4163 -3.0005 6.4725 11.1239 -0.0000 0.0000 0.0000 -88.6502 -15.4041 53.6164 24.4334 -35.6193 -7.9576 -0.0000 0.0000 -20.6027 19.2154 32.3334 10.5596 -7.1250 0.0000 -0.0000 -15.8598 63.1326 -7.0717 -0.0000 0.0000 0.0000 86.8735 -12.3378 8.8027 -17.0995 26.9888 -4.1324 0.0000 0.0000 17.5076 -17.9602 28.5081 -8.7946 7.1250 -0.0000 -0.0000 7.3819 -0.4715 7.3826
0.00 0.00 0.00 0.2787 -20.0158 10.7150 0.0000 0.0000 0.0000 -28.3701 -9.6654 -7.8205 1.7830 8.3987 23.9317 -1.1089 -18.8933 1.8470 0.2936 3.4846 9.6309 0.0000 0.0000 0.0000 7.1003 34.4133 -30.5427 -0.9806 -6.3036 17.6679 -1.4561 -3.9285 21.8702 -3.2351 -11.0663 32.5038 -1.8944 -1.0268 -10.0005 0.2145 -1.1457 1.8263 1.1056 -0.6481 7.5946 6.4725 11.2826 -13.3603 -12.8146 17.7326 23.1548 -3.0531 7.2307 11.5605 0.0000 0.0000 0.0000 -88.3987 -11.8292 50.7222 20.6196 -31.3816 -5.8506 -0.0000 0.0000 -19.7470 18.2387 31.8259 9.8581 -7.1250 0.0000 -0.0000 -16.5485 62.3931 -7.0996 0.0000 0.0000 0.0000 82.3257 -11.1216 7.6173 -19.2351 29.7098 -5.1469 0.0000 0.0000 14.6947 -20.6902 28.4420 -10.1970 7.1250 -0.0000 -0.0000 5.7702 -0.0439 5.7952
0.00 0.00 0.00 0.4970 10.3144 13.1871 0.0000 0.0000 0.0000 -24.3175 -6.7498 -11.8959 4.4314 12.7134 38.3049 -0.0152 -7.3161 -4.7700 0.8391 -5.8431 -16.3298 0.0000 0.0000 0.0000 8.2603 27.6951 -28.9744 -2.2739 -9.4147 27.1014 -0.7583 2.5400 17.5595 -2.7489 -10.2770 29.8785 1.4529 -1.0005 -10.1734 1.9439 -1.6474 1.1049 0.9635 -0.7901 6.8986 7.0512 10.7806 -13.3036 -12.7538 17.1073 23.5490 -3.2242 7.0707 11.6729 -0.0000 0.0000 0.0000 -82.7325 -5.5299 34.1183 13.0665 -21.3846 -2.4775 -0.0000 0.0000 -11.7605 19.4026 34.9346 11.4029 -7.1250 0.0000 -0.0000 -18.0194 65.6551 -9.1214 -0.0000 0.0000 0.0000 74.0747 -10.1600 -2.1016 -16.6651 26.4142 -3.9372 0.0000 0.0000 16.0707 -20.0376 27.6617 -9.6100 7.1250 -0.0000 -0.0000 6.0651 -0.9646 5.9960
0.00 0.00 0.00 4.8153 67.7010 15.6781 0.0000 0.0000 0.0000 -23.9586 -4.0678 -37.4438 2.2304 9.3303 26.8341 0.6215 4.1546 -16.9810 0.4450 -4.2802 -11.8662 0.0000 0.0000 0.0000 20.0444 7.2351 -12.9232 -1.9339 -8.7271 24.9453 -1.6979 10.0543 -23.4030 -1.6902 -8.1886 23.2885 1.3319 1.6988 -9.4671 1.6198 2.0011 1.9708 1.2715 1.0014 7.3851 0.9049 2.7861 -16.9868 -5.2276 5.4171 24.5462 -1.2387 2.0234 10.9165 -0.0000 0.0000 0.0000 -87.1311 -0.5890 32.4781 15.4391 -24.7542 -3.4077 -0.0000 0.0000 -14.7367 18.7854 32.7021 10.4130 -7.1250 0.0000 -0.0000 -16.6568 63.3725 -7.5308 -0.0000 0.0000 0.0000 63.6179 13.7628 5.0479 -18.6898 29.0314 -4.8794 0.0000 0.0000 12.9327 -24.9503 26.6831 -11.8007 7.1250 -0.0000 -0.0000 3.0194 -1.0152 2.9696
0.00 0.00 0.00 1.6535 76.0901 13.0659 0.0000 0.0000 0.0000 -21.9368 -4.4345 -35.9659 1.9051 8.6656 24.7549 -0.0017 9.1667 -13.0318 0.2735 -3.3641 -9.2942 0.0000 0.0000 0.0000 21.6901 0.3346 -2.6214 -1.5452 -7.8466 22.2490 -1.6211 5.7261 -22.9002 -0.2152 -2.9865 8.2411 -2.3274 2.4576 -9.4403 -0.4694 3.5941 1.6927 1.3604 1.6765 6.9675 -1.0618 1.2776 -18.6930 -1.6115 2.6834 21.8831 -0.0038 1.0157 10.0778 0.0000 0.0000 0.0000 -87.7061 10.1983 23.3697 13.2304 -21.6239 -2.5376 -0.0000 0.0000 -11.2381 14.0304 34.0836 7.9718 -7.1250 0.0000 -0.0000 -23.2249 63.4029 -10.6590 0.0000 0.0000 0.0000 75.6893 7.3134 34.8872 -37.2969 46.3843 -16.4546 0.0000 0.0000 6.2022 -19.0175 28.5987 -9.3685 7.1250 -0.0000 -0.0000 6.7706 -0.1933 6.7954
0.00 0.00 0.00 7.6115 79.3477 18.6162 0.0000 0.0000 0.0000 -25.5935 -1.7537 -31.2315 1.9072 8.6700 24.7684 0.4756 1.3008 -13.5636 0.2599 -3.2800 -9.0593 0.0000 0.0000 0.0000 17.0934 -3.6643 -9.8765 -4.8756 -13.2423 40.2824 -0.2076 -3.8951 -10.9421 -1.2142 -6.9898 19.6852 -5.1698 1.5212 -9.7681 -1.3357 2.7579 1.1527 1.9192 1.1973 6.5297 -1.6936 0.9171 -18.6545 -0.4605 2.0346 21.0839 0.4087 0.8025 9.7608 0.0000 0.0000 0.0000 -85.9194 6.0630 27.9248 16.1452 -25.7171 -3.7087 -0.0000 0.0000 -14.4150 15.8695 34.1006 9.0557 -7.1250 0.0000 -0.0000 -21.2170 63.9065 -9.9425 0.0000 0.0000 0.0000 81.1958 -3.2783 34.0651 -29.5936 40.5425 -11.1445 0.0000 0.0000 10.1022 -18.9488 30.7909 -9.9681 7.1250 -0.0000 -0.0000 7.0641 2.0161 7.3637
0.00 0.00 0.00 288.0530 89.1242 295.7500 0.0000 0.0000 0.0000 -15.5290 -16.4283 -30.3019 0.4050 4.0855 11.3173 0.1749 8.7088 -15.2649 1.0321 -6.4619 -18.1306 0.0000 0.0000 0.0000 25.1881 4.0494 -3.8121 -1.4681 -7.6571 21.6774 0.6732 14.5905 8.2555 -1.4989 -7.7333 21.9069 0.7294 1.2490 -7.0836 1.5851 1.5133 2.6990 1.4443 0.7442 6.7780 -2.3296 -0.9437 -18.1570 0.7251 -0.5052 24.9794 0.6060 -0.2414 11.1077 0.0000 0.0000 0.0000 -88.1132 0.5996 31.4536 15.6856 -25.0925 -3.5116 -0.0000 0.0000 -14.1988 17.1326 33.3238 9.6119 -7.1250 0.0000 -0.0000 -19.0702 63.5231 -8.7273 0.0000 0.0000 0.0000 80.4440 10.7851 30.0169 -33.4711 43.6890 -13.7464 0.0000 0.0000 9.1023 -21.3217 28.9096 -10.6856 7.1250 -0.0000 -0.0000 5.4580 0.5578 5.5359
0.00 0.00 0.00 544.4800 86.0268 562.0950 0.0000 0.0000 0.0000 -14.7997 -11.2769 -33.0090 2.5510 9.9301 28.7506 0.6134 4.2712 -16.9643 0.3793 -3.9554 -10.9513 0.0000 0.0000 0.0000 12.8355 13.2860 -29.5541 -2.4819 -9.8049 28.3471 -0.3442 0.1670 -11.0251 -0.6177 5.0299 -13.9939 -1.6944 0.3635 -3.1436 0.8102 0.5928 4.1960 1.8446 0.2151 6.0953 -6.1985 -3.2468 -18.2977 5.1161 -3.6945 13.9426 2.2631 -1.6075 7.5028 0.0000 0.0000 0.0000 -68.3428 -35.2011 30.2326 15.7715 -25.2099 -3.5481 -0.0000 0.0000 -9.6409 16.1763 33.7661 9.1588 -7.1250 0.0000 -0.0000 -20.5517 63.6805 -9.5091 0.0000 0.0000 0.0000 62.6061 34.5041 14.1264 -15.1083 24.2968 -3.2704 0.0000 0.0000 28.2814 -27.5458 33.8321 -16.1931 7.1250 -0.0000 -0.0000 2.7337 7.0698 3.0527
